<?xml version="1.0" standalone="no"?>
<!DOCTYPE svg PUBLIC "-//W3C//DTD SVG 20010904//EN"
 "http://www.w3.org/TR/2001/REC-SVG-20010904/DTD/svg10.dtd">
<svg version="1.0" xmlns="http://www.w3.org/2000/svg"
 width="2400.000000pt" height="2466.000000pt" viewBox="0 0 2400.000000 2466.000000"
 preserveAspectRatio="xMidYMid meet">

<g transform="translate(0.000000,2466.000000) scale(0.100000,-0.100000)"
fill="#000000" stroke="none">
<path d="M16457 23342 l-4889 -1307 -722 -1270 -723 -1270 -664 0 c-365 0
-1029 2 -1475 5 l-812 4 -3586 -3574 -3586 -3575 157 -156 c87 -86 1701 -1695
3588 -3574 l3430 -3418 890 7 c489 3 1151 9 1470 12 l580 7 718 -1260 c394
-693 723 -1268 730 -1277 10 -14 1251 -349 4908 -1326 2692 -719 4895 -1307
4896 -1306 2 2 2591 9630 2613 9718 l12 47 -743 1262 c-409 694 -743 1266
-741 1271 1 5 335 573 742 1263 407 690 740 1259 740 1265 0 5 -585 2186
-1300 4847 -716 2661 -1305 4855 -1311 4876 -5 20 -15 37 -22 36 -7 0 -2212
-588 -4900 -1307z m1376 -2376 c-10 -18 -979 -1692 -2153 -3720 l-2135 -3686
-4305 0 -4305 0 81 83 c181 186 1237 1261 1490 1517 149 151 1076 1094 2059
2095 l1788 1820 3746 961 c2060 529 3747 962 3749 963 1 1 -6 -14 -15 -33z
m3160 -4906 l1036 -3705 -1034 -3695 c-569 -2032 -1038 -3703 -1042 -3712 -6
-13 -570 952 -2158 3694 -1182 2042 -2149 3715 -2148 3719 10 33 4298 7418
4303 7412 4 -4 473 -1675 1043 -3713z m-5295 -8622 c1183 -2042 2150 -3714
2149 -3715 -2 -1 -1688 430 -3747 957 l-3744 959 -177 178 c-97 98 -1219 1240
-2494 2538 -1275 1298 -2415 2458 -2534 2578 l-216 217 4306 0 4307 0 2150
-3712z"/>
</g>
</svg>
